# xmcd
#
# Track frame offsets: 
#        150
#        15847
#        37886
#        61980
#        80470
#        109426
#        133689
#        155834
#        172738
#
# Disc length: 2613 seconds
#
# Revision: 0
# Processed by: cddbd v1.5.2PL0 Copyright (c) Steve Scherf et al.
# Submitted via: ExactAudioCopyFreeDBPlugin 1.0
#
DISCID=670a3309
DTITLE=Patrik Jansson Band - So far to go
DYEAR=2017
DGENRE=Blues
TTITLE0=Can't get you (out of my head)
TTITLE1=Life without you
TTITLE2=Keep taking your chances
TTITLE3=So far to go
TTITLE4=Those days are gone
TTITLE5=That 70's thing
TTITLE6=Hard to please
TTITLE7=Too blind to see
TTITLE8=Sweet T
EXTD=
EXTT0=
EXTT1=
EXTT2=
EXTT3=
EXTT4=
EXTT5=
EXTT6=
EXTT7=
EXTT8=
PLAYORDER=
